<svg xmlns="http://www.w3.org/2000/svg" xmlns:xlink="http://www.w3.org/1999/xlink" viewBox="0 0 1025 1025"><defs><clipPath id="a" transform="translate(1 1)"><rect width="1024" height="1024" fill="none"/></clipPath><clipPath id="b" transform="translate(1 1)"><path d="M513,1275a6,6,0,0,1-6,6H-89l-186,2a6,6,0,0,1-6-6V1067c0-3,0-9,0-12V847c0-3,0-9,0-12V628c0-3,0-9,0-12V408c0-3,0-9,0-12l2-207c0-3,0-9,0-12l-2-207c0-3,0-9,0-12l2-206a6,6,0,0,1,6-6H507a6,6,0,0,1,6,6V-43c0,3,0,9,0,12V177c0,3,0,9,0,12V396c0,3,0,9,0,12V616c0,3,0,9,0,12V835c0,3,0,9,0,12v207c0,3,0,9,0,12Z" fill="none"/></clipPath><clipPath id="c" transform="translate(1 1)"><path d="M1305,1273a6,6,0,0,1-6,6H1101l-186,2H903l-186-2H519a6,6,0,0,1-6-6V1067c0-3,0-9,0-12V847c0-3,0-9,0-12V628c0-3,0-9,0-12l-2-207c0-3,0-9,0-12V-31c0-3,0-9,0-12l-2-208a6,6,0,0,1,6-6H915l186,2h198a6,6,0,0,1,6,6V-43c0,3,0,9,0,12V189l2,207c0,3,0,9,0,12V616c0,3,0,9,0,12V835c0,3,0,9,0,12l-2,207c0,3,0,9,0,12Z" fill="none"/></clipPath></defs><title>polyestr-package-duoicon</title><g style="isolation:isolate"><g clip-path="url(#a)"><rect x="1" width="512" height="1024" fill="#007acc"/><rect x="513" width="512" height="1024" fill="#f7df1e"/><g opacity="0.33"><rect width="103" height="103.4" fill="#b7b7b7"/><rect x="102" width="103" height="103.4" fill="#b9b9b9"/><rect x="205" width="103" height="103.4" fill="#bababa"/><rect x="307" width="103" height="103.4" fill="#bcbcbc"/><rect x="410" width="103" height="103.4" fill="#bbb"/><rect x="512" width="103" height="103.4" fill="#bbb"/><rect x="614" width="103" height="103.4" fill="#bababa"/><rect x="717" width="103" height="103.4" fill="#bababa"/><rect x="819" width="103" height="103.4" fill="#b9b9b9"/><rect x="922" width="103" height="103.4" fill="#b8b8b8"/><rect y="102" width="103" height="103.4" fill="#b7b7b7"/><rect x="102" y="102" width="103" height="103.4" fill="#b9b9b9"/><rect x="205" y="102" width="103" height="103.4" fill="#bbb"/><rect x="307" y="102" width="103" height="103.4" fill="#c4c4c4"/><rect x="410" y="102" width="103" height="103.4" fill="#ccc"/><rect x="512" y="102" width="103" height="103.4" fill="#cdcdcd"/><rect x="614" y="102" width="103" height="103.4" fill="#c8c8c8"/><rect x="717" y="102" width="103" height="103.4" fill="#c1c1c1"/><rect x="819" y="102" width="103" height="103.4" fill="#bababa"/><rect x="922" y="102" width="103" height="103.4" fill="#b9b9b9"/><rect y="205" width="103" height="103.4" fill="#b7b7b7"/><rect x="102" y="205" width="103" height="103.4" fill="#bababa"/><rect x="205" y="205" width="103" height="103.4" fill="#c8c8c8"/><rect x="307" y="205" width="103" height="103.4" fill="#dcdcdc"/><rect x="410" y="205" width="103" height="103.4" fill="#e7e7e7"/><rect x="512" y="205" width="103" height="103.4" fill="#e5e5e5"/><rect x="614" y="205" width="103" height="103.4" fill="#dbdbdb"/><rect x="717" y="205" width="103" height="103.4" fill="#d0d0d0"/><rect x="819" y="205" width="103" height="103.4" fill="#c1c1c1"/><rect x="922" y="205" width="103" height="103.4" fill="#b9b9b9"/><rect y="307" width="103" height="103.4" fill="#b9b9b9"/><rect x="102" y="307" width="103" height="103.4" fill="#c2c2c2"/><rect x="205" y="307" width="103" height="103.4" fill="#d9d9d9"/><rect x="307" y="307" width="103" height="103.4" fill="#ececec"/><rect x="410" y="307" width="103" height="103.4" fill="#eee"/><rect x="512" y="307" width="103" height="103.4" fill="#efefef"/><rect x="614" y="307" width="103" height="103.4" fill="#ebebeb"/><rect x="717" y="307" width="103" height="103.4" fill="#d5d5d5"/><rect x="819" y="307" width="103" height="103.4" fill="#c8c8c8"/><rect x="922" y="307" width="103" height="103.4" fill="#bebebe"/><rect y="410" width="103" height="103.4" fill="#b9b9b9"/><rect x="102" y="410" width="103" height="103.4" fill="#c9c9c9"/><rect x="205" y="410" width="103" height="103.4" fill="#e2e2e2"/><rect x="307" y="410" width="103" height="103.4" fill="#eee"/><rect x="410" y="410" width="103" height="103.4" fill="#eee"/><rect x="512" y="410" width="103" height="103.4" fill="#eee"/><rect x="614" y="410" width="103" height="103.4" fill="#ededed"/><rect x="717" y="410" width="103" height="103.4" fill="#dbdbdb"/><rect x="819" y="410" width="103" height="103.4" fill="#c6c6c6"/><rect x="922" y="410" width="103" height="103.4" fill="#bebebe"/><rect y="512" width="103" height="103.4" fill="#bbb"/><rect x="102" y="512" width="103" height="103.4" fill="#cbcbcb"/><rect x="205" y="512" width="103" height="103.4" fill="#e0e0e0"/><rect x="307" y="512" width="103" height="103.4" fill="#ededed"/><rect x="410" y="512" width="103" height="103.4" fill="#ededed"/><rect x="512" y="512" width="103" height="103.4" fill="#ededed"/><rect x="614" y="512" width="103" height="103.4" fill="#eaeaea"/><rect x="717" y="512" width="103" height="103.4" fill="#d8d8d8"/><rect x="819" y="512" width="103" height="103.4" fill="#c3c3c3"/><rect x="922" y="512" width="103" height="103.4" fill="#bababa"/><rect y="614" width="103" height="103.4" fill="#bababa"/><rect x="102" y="614" width="103" height="103.4" fill="#c7c7c7"/><rect x="205" y="614" width="103" height="103.4" fill="#d9d9d9"/><rect x="307" y="614" width="103" height="103.4" fill="#e5e5e5"/><rect x="410" y="614" width="103" height="103.4" fill="#ebebeb"/><rect x="512" y="614" width="103" height="103.4" fill="#eaeaea"/><rect x="614" y="614" width="103" height="103.4" fill="#e7e7e7"/><rect x="717" y="614" width="103" height="103.4" fill="#cbcbcb"/><rect x="819" y="614" width="103" height="103.4" fill="#bdbdbd"/><rect x="922" y="614" width="103" height="103.4" fill="#b6b6b6"/><rect y="717" width="103" height="103.4" fill="#b9b9b9"/><rect x="102" y="717" width="103" height="103.4" fill="#bebebe"/><rect x="205" y="717" width="103" height="103.4" fill="#ccc"/><rect x="307" y="717" width="103" height="103.4" fill="#d2d2d2"/><rect x="410" y="717" width="103" height="103.4" fill="#dcdcdc"/><rect x="512" y="717" width="103" height="103.4" fill="#ddd"/><rect x="614" y="717" width="103" height="103.4" fill="#ccc"/><rect x="717" y="717" width="103" height="103.4" fill="#bcbcbc"/><rect x="819" y="717" width="103" height="103.4" fill="#b4b4b4"/><rect x="922" y="717" width="103" height="103.4" fill="#b0b0b0"/><rect y="819" width="103" height="103.4" fill="#b7b7b7"/><rect x="102" y="819" width="103" height="103.4" fill="#b2b2b2"/><rect x="205" y="819" width="103" height="103.4" fill="#b8b8b8"/><rect x="307" y="819" width="103" height="103.4" fill="#bdbdbd"/><rect x="410" y="819" width="103" height="103.4" fill="#bababa"/><rect x="512" y="819" width="103" height="103.4" fill="#b7b7b7"/><rect x="614" y="819" width="103" height="103.4" fill="#b2b2b2"/><rect x="717" y="819" width="103" height="103.4" fill="#aeaeae"/><rect x="819" y="819" width="103" height="103.4" fill="#acacac"/><rect x="922" y="819" width="103" height="103.4" fill="#ababab"/><rect y="922" width="103" height="103.4" fill="#b3b3b3"/><rect x="102" y="922" width="103" height="103.4" fill="#afafaf"/><rect x="205" y="922" width="103" height="103.4" fill="#ababab"/><rect x="307" y="922" width="103" height="103.4" fill="#adadad"/><rect x="410" y="922" width="103" height="103.4" fill="#adadad"/><rect x="512" y="922" width="103" height="103.4" fill="#aaa"/><rect x="614" y="922" width="103" height="103.4" fill="#a8a8a8"/><rect x="717" y="922" width="103" height="103.4" fill="#a6a6a6"/><rect x="819" y="922" width="103" height="103.4" fill="#a6a6a6"/><rect x="922" y="922" width="103" height="103.4" fill="#a6a6a6"/></g><g clip-path="url(#b)"><path d="M733,634V622L721,442V430L710,250a8,8,0,0,0-6-7q-48-9-96-14a7,7,0,0,0-8,5L560,410l-3,12L518,598c-1,3-2,6-4,6s-3-3-4-6L467,421l-3-12L422,235a7,7,0,0,0-8-5q-47,4-94,13a8,8,0,0,0-7,7L303,430v12l-9,180v12L282,813c0,3,2,5,6,5l62-12a8,8,0,0,0,6-7l13-281c0-3,0-9,0-12l2-179c0-3,1-6,1-6s2,3,3,6l46,173,3,11,47,175a8,8,0,0,0,8,6h66a8,8,0,0,0,8-6l43-176,3-11,43-174c1-3,2-5,3-5s1,3,2,6l5,179v12l14,282a8,8,0,0,0,6,7l66,13c3,1,6-1,6-5Z" transform="translate(1 1)" fill="#fff"/></g><g clip-path="url(#c)"><path d="M734,634V622L720,442V430l-8-180a8,8,0,0,0-6-7q-48-9-96-13a7,7,0,0,0-8,5L561,410l-3,12L516,598c-1,3-2,6-3,6s-2-3-3-6L466,422l-3-12L422,235a7,7,0,0,0-8-5q-47,4-94,13a8,8,0,0,0-7,7L302,430v12l-8,179v12L281,814c0,3,2,5,6,5l64-12a8,8,0,0,0,6-7l15-282c0-3,0-9,0-12V327c0-3,1-6,2-6s3,2,4,5l45,174,3,11,45,176a8,8,0,0,0,8,6h66a8,8,0,0,0,8-5l43-176,3-11,45-173c1-3,2-6,2-6s1,3,1,6l2,179c0,3,0,9,0,12l16,282a8,8,0,0,0,7,7l63,12c3,1,6-1,6-5Z" transform="translate(1 1)"/></g><g opacity="0.1" style="mix-blend-mode:difference"><g clip-path="url(#b)"><path d="M733,634V622L721,442V430L710,250a8,8,0,0,0-6-7q-48-9-96-14a7,7,0,0,0-8,5L560,410l-3,12L518,598c-1,3-2,6-4,6s-3-3-4-6L467,421l-3-12L422,235a7,7,0,0,0-8-5q-47,4-94,13a8,8,0,0,0-7,7L303,430v12l-9,180v12L282,813c0,3,2,5,6,5l62-12a8,8,0,0,0,6-7l13-281c0-3,0-9,0-12l2-179c0-3,1-6,1-6s2,3,3,6l46,173,3,11,47,175a8,8,0,0,0,8,6h66a8,8,0,0,0,8-6l43-176,3-11,43-174c1-3,2-5,3-5s1,3,2,6l5,179v12l14,282a8,8,0,0,0,6,7l66,13c3,1,6-1,6-5Z" transform="translate(1 1)" fill="none" stroke="gray" stroke-linecap="square" stroke-linejoin="bevel" stroke-width="10.24"/><path d="M733,634V622L721,442V430L710,250a8,8,0,0,0-6-7q-48-9-96-14a7,7,0,0,0-8,5L560,410l-3,12L518,598c-1,3-2,6-4,6s-3-3-4-6L467,421l-3-12L422,235a7,7,0,0,0-8-5q-47,4-94,13a8,8,0,0,0-7,7L303,430v12l-9,180v12L282,813c0,3,2,5,6,5l62-12a8,8,0,0,0,6-7l13-281c0-3,0-9,0-12l2-179c0-3,1-6,1-6s2,3,3,6l46,173,3,11,47,175a8,8,0,0,0,8,6h66a8,8,0,0,0,8-6l43-176,3-11,43-174c1-3,2-5,3-5s1,3,2,6l5,179v12l14,282a8,8,0,0,0,6,7l66,13c3,1,6-1,6-5Z" transform="translate(1 1)" fill="none" stroke="gray" stroke-linecap="square" stroke-linejoin="bevel" stroke-width="10.24"/><path d="M733,634V622L721,442V430L710,250a8,8,0,0,0-6-7q-48-9-96-14a7,7,0,0,0-8,5L560,410l-3,12L518,598c-1,3-2,6-4,6s-3-3-4-6L467,421l-3-12L422,235a7,7,0,0,0-8-5q-47,4-94,13a8,8,0,0,0-7,7L303,430v12l-9,180v12L282,813c0,3,2,5,6,5l62-12a8,8,0,0,0,6-7l13-281c0-3,0-9,0-12l2-179c0-3,1-6,1-6s2,3,3,6l46,173,3,11,47,175a8,8,0,0,0,8,6h66a8,8,0,0,0,8-6l43-176,3-11,43-174c1-3,2-5,3-5s1,3,2,6l5,179v12l14,282a8,8,0,0,0,6,7l66,13c3,1,6-1,6-5Z" transform="translate(1 1)" fill="none" stroke="gray" stroke-linecap="square" stroke-linejoin="bevel" stroke-width="10.24"/></g><g clip-path="url(#c)"><path d="M734,634V622L720,442V430l-8-180a8,8,0,0,0-6-7q-48-9-96-13a7,7,0,0,0-8,5L561,410l-3,12L516,598c-1,3-2,6-3,6s-2-3-3-6L466,422l-3-12L422,235a7,7,0,0,0-8-5q-47,4-94,13a8,8,0,0,0-7,7L302,430v12l-8,179v12L281,814c0,3,2,5,6,5l64-12a8,8,0,0,0,6-7l15-282c0-3,0-9,0-12V327c0-3,1-6,2-6s3,2,4,5l45,174,3,11,45,176a8,8,0,0,0,8,6h66a8,8,0,0,0,8-5l43-176,3-11,45-173c1-3,2-6,2-6s1,3,1,6l2,179c0,3,0,9,0,12l16,282a8,8,0,0,0,7,7l63,12c3,1,6-1,6-5Z" transform="translate(1 1)" fill="none" stroke="gray" stroke-linecap="square" stroke-linejoin="bevel" stroke-width="10.24"/><path d="M734,634V622L720,442V430l-8-180a8,8,0,0,0-6-7q-48-9-96-13a7,7,0,0,0-8,5L561,410l-3,12L516,598c-1,3-2,6-3,6s-2-3-3-6L466,422l-3-12L422,235a7,7,0,0,0-8-5q-47,4-94,13a8,8,0,0,0-7,7L302,430v12l-8,179v12L281,814c0,3,2,5,6,5l64-12a8,8,0,0,0,6-7l15-282c0-3,0-9,0-12V327c0-3,1-6,2-6s3,2,4,5l45,174,3,11,45,176a8,8,0,0,0,8,6h66a8,8,0,0,0,8-5l43-176,3-11,45-173c1-3,2-6,2-6s1,3,1,6l2,179c0,3,0,9,0,12l16,282a8,8,0,0,0,7,7l63,12c3,1,6-1,6-5Z" transform="translate(1 1)" fill="none" stroke="gray" stroke-linecap="square" stroke-linejoin="bevel" stroke-width="10.24"/><path d="M734,634V622L720,442V430l-8-180a8,8,0,0,0-6-7q-48-9-96-13a7,7,0,0,0-8,5L561,410l-3,12L516,598c-1,3-2,6-3,6s-2-3-3-6L466,422l-3-12L422,235a7,7,0,0,0-8-5q-47,4-94,13a8,8,0,0,0-7,7L302,430v12l-8,179v12L281,814c0,3,2,5,6,5l64-12a8,8,0,0,0,6-7l15-282c0-3,0-9,0-12V327c0-3,1-6,2-6s3,2,4,5l45,174,3,11,45,176a8,8,0,0,0,8,6h66a8,8,0,0,0,8-5l43-176,3-11,45-173c1-3,2-6,2-6s1,3,1,6l2,179c0,3,0,9,0,12l16,282a8,8,0,0,0,7,7l63,12c3,1,6-1,6-5Z" transform="translate(1 1)" fill="none" stroke="gray" stroke-linecap="square" stroke-linejoin="bevel" stroke-width="10.24"/></g></g></g></g></svg>